<svg id="svg31911" fill="#f68214" height="512" viewBox="0 0 16.933333 16.933334" width="512" xmlns="http://www.w3.org/2000/svg" xmlns:svg="http://www.w3.org/2000/svg"><g id="layer1" transform="translate(0 -280.067)"><path id="path13183" d="m8.4671826 280.59475c-4.380627 0-7.9375001 3.55687-7.9375001 7.9375.00000529 4.38062 3.5568784 7.9375 7.9375001 7.9375 4.3806244 0 7.9374974-3.55688 7.9374994-7.9375.000003-4.38063-3.55687-7.9375-7.9374994-7.9375zm0 .52968c4.0946464 0 7.4083354 3.31317 7.4083334 7.40782-.000003 4.09464-3.313692 7.40833-7.4083334 7.40833-4.0946388 0-7.4078122-3.31369-7.4078148-7.40833-.0000027-4.09465 3.3131707-7.40782 7.4078148-7.40782zm-5.9588083 3.96875c-.090667.15573-.019235.29666.1369404.38654l1.1162135.64234c-.3342851.64999-.5416867 1.3757-.5798105 2.14664h-1.0541979c.025427-.61847.1336993-1.21509.3234928-1.77508.1345089-.34415-.3985656-.5246-.5007451-.1695-.2350929.69365-.3627676 1.43695-.3627676 2.20943.00212 1.20721.321953 2.39247.9270762 3.43675.073313.12614.2349024.16914.3612171.0961l1.375111-.79375c.1266455-.0732.169926-.23518.096634-.36174-.4193381-.72264-.6412653-1.54267-.6433714-2.37815.0002646-2.63315 2.1292846-4.76198 4.7625-4.76198.8360675 0 1.6572072.22013 2.3812492.6382.125315.072.285197.0301.359416-.0938l.660688-1.14436c.789157.50122 1.459299 1.1715 1.960602 1.9606l-1.101741.63717c-.155191.0572-.220411.24124-.135908.38344.41802.72402.638204 1.54523.638204 2.38125-.0016.83552-.222919 1.65575-.641821 2.37867-.07329.12656-.03001.28858.09663.36173l1.371494.79168c.126312.073.287901.03.361217-.0961.418309-.72085.700503-1.50878.836126-2.32493.06652-.35406-.470252-.44334-.521933-.0868-.110731.66638-.344649 1.305-.660424 1.90582l-.922425-.53226c.341678-.66545.557848-1.38789.600996-2.13321h1.287777c.163066.0278.311359-.0992.309026-.26458 0-3.79612-3.083042-6.87918-6.8791719-6.87918-2.5439238-.00002-4.7631853 1.38633-5.9582976 3.43905zm6.2223597-2.90318c.9646418.0394 1.872932.29349 2.679422.71572l-.531233.92036c-.667372-.34201-1.3992197-.53822-2.148189-.57568zm-.5291666.003v1.05575c-.770345.0382-1.4955018.24539-2.1450909.57929l-.532265-.92087c.8058389-.42229 1.7133914-.6745 2.6773559-.71417zm-3.1346935.97978.5307172.91984c-.6286024.40733-1.1646668.9434-1.5719981 1.572l-.9193239-.53072c.5016024-.78923 1.1714374-1.45956 1.9606048-1.96112zm2.0763522 5.35981c-.0000027.72749.5964581 1.32446 1.3239485 1.32446.7274931 0 1.3224008-.59697 1.3224008-1.32446 0-.48954-.2723886-.91349-.6702425-1.14205l1.9797231-1.48932-1.1239627 1.49397c-.2123335.28217.2108967.60049.4232297.31833l2.248443-2.98949c.130288-.17303.0088-.42076-.207735-.42374-.05865-.00079-.115914.0179-.162777.0532l-3.8039068 2.85744c-.732663-.00027-1.3291238.59413-1.3291211 1.32162zm6.9510039-2.94193c.422029.80624.676264 1.7141.715719 2.67839h-1.0604c-.03754-.74892-.23364-1.48087-.575675-2.14819zm-5.6270474 2.14922c.4415075 0 .793234.35121.793234.79272s-.3517265.7953-.793234.7953c-.441505 0-.7947819-.35379-.7947819-.7953s.3532769-.79272.7947819-.79272zm-6.3412132 1.05834h1.0588492c.043677.74509.2600246 1.46711.6020303 2.13217l-.916739.52916c-.4336202-.82717-.6994947-1.73051-.7441405-2.66168zm3.4313151 3.17396c-.1469285-.00055-.2661788.11869-.2656179.26562v1.58802c.0005292.14612.1194964.26411.2656179.26355h5.8203145c.145315-.00053.262972-.11824.263552-.26355v-1.58802c.000529-.14612-.117431-.26503-.263552-.26562zm.2635488.52917h5.2911507v1.05885h-5.2911507z" font-variant-ligatures="normal" font-variant-position="normal" font-variant-caps="normal" font-variant-numeric="normal" font-variant-alternates="normal" font-feature-settings="normal" text-indent="0" text-align="start" text-decoration-line="none" text-decoration-style="solid" text-decoration-color="rgb(0,0,0)" text-transform="none" text-orientation="mixed" white-space="normal" shape-padding="0" isolation="auto" mix-blend-mode="normal" solid-color="rgb(0,0,0)" solid-opacity="1" vector-effect="none"/></g></svg>