<svg id="svg31911" fill="#f68214" height="512" viewBox="0 0 16.933333 16.933334" width="512" xmlns="http://www.w3.org/2000/svg" xmlns:svg="http://www.w3.org/2000/svg"><g id="layer1" transform="translate(0 -280.067)"><path id="path13211" d="m15.226461 280.62427-2.644283 1.32189c-.08984.0447-.146671.13634-.146762.23668v.94929l-6.3484493 6.34845-.3410643-.34106c-.1070203-.10702-.2690897-.10584-.3746543 0l-.7932332.7953c-.1735379.17399-.044824.33138.03359.40979l1.8944582 1.89446-3.2948893 3.29541c-.5284568.52846-1.3290427.54577-1.8086752.0661-.4796271-.47963-.462312-1.28022.066146-1.80867l2.5667683-2.56832c.2894272-.24794-.125167-.66254-.3731038-.37311l-2.5683187 2.56677c-.7174661.71747-.7596618 1.86343-.066663 2.55643.6930054.69301 1.8389678.65082 2.5564331-.0667l4.2777748-4.27726c.102597-.10321.102597-.26989 0-.3731l-.342614-.34261 6.3484487-6.34845h.949298c.10015-.00027.191557-.0571.236161-.14677l1.32395-2.64634c.05039-.10196.03-.22471-.05064-.3049l-.792716-.79478c-.06844-.0686-.187383-.10835-.306959-.0486zm-12.8452101-.0285c-.2356472.0001-.3536382.28497-.1870686.45166l1.7745686 1.77456v.57465l-.6387206.63876h-.5746422l-1.7745685-1.77457c-.166686-.16657-.4515593-.0486-.4516521.18707v2.11666c.0000136.0702.027896.13746.077515.18707l1.3229167 1.32292c.049612.0496.1169014.0775.1870687.0775h2.0071124l2.085144 2.08515c.2493714.25975.6338908-.12477.3741372-.37414l-2.1626587-2.16266c-.049612-.0496-.1169014-.0775-.1870686-.0775h-2.0071126l-1.1678873-1.16789v-1.36839l1.4004313 1.40043c.049612.0496.1169014.0775.1870687.0775h.7937499c.070167-.00001.1374563-.0279.1870686-.0775l.79375-.79375c.049619-.0496.077501-.1169.077515-.18707v-.79375c-.0000134-.0702-.027896-.13745-.077515-.18707l-1.4004314-1.40043h1.3683922l1.1678873 1.16789v2.00711c.0000135.0702.027896.13746.077515.18707l2.1626584 2.16266c.249372.25975.633891-.12477.374137-.37414l-2.0851434-2.08514v-2.00712c-.0000135-.0702-.027896-.13745-.077515-.18706l-1.3229166-1.32292c-.049612-.0496-.1169014-.0775-.1870687-.0775zm12.9118731.58705.525033.52348-1.165821 2.33009h-.894519c-.07012-.00053-.137593.0268-.187585.076l-6.4254476 6.42699-.6831624-.68367 6.424931-6.427c.05012-.0496.0784-.11709.07855-.18759v-.89452zm-4.757332 7.5675c-.237443.00006-.354643.28863-.184485.45423l2.161625 2.16163c.04961.0496.116902.0775.187069.0775h2.007113l1.167887 1.16789v1.36839l-1.400432-1.40043c-.04961-.0496-.116901-.0775-.187068-.0775h-.79375c-.07017.00002-.137456.0279-.187069.0775l-.79375.79375c-.04962.0496-.0775.1169-.07751.18707v.79375c.000013.0702.0279.13745.07751.18707l1.400432 1.40043h-1.368393l-1.167887-1.16789v-2.00711c-.000013-.0702-.0279-.13746-.07752-.18707l-2.1616247-2.16162c-.249371-.25976-.633891.12476-.374137.37413l2.0841107 2.08411v2.00711c.000013.0702.02789.13746.07751.18707l1.322917 1.32292c.04961.0496.116901.0775.187069.0775h2.116666c.235647-.00009.353638-.28496.187069-.45165l-1.774569-1.77457v-.57464l.638721-.63872h.574642l1.774569 1.77457c.166686.16657.451559.0486.451652-.18707v-2.11667c-.000014-.0702-.0279-.13745-.07752-.18706l-1.322917-1.32292c-.04961-.0496-.116901-.0775-.187068-.0775h-2.007113l-2.084111-2.0841c-.04981-.0512-.118214-.0801-.189652-.0801zm-4.9769572.95188 1.7420125 1.74201-.4201295.42013-1.7435627-1.74201z" font-variant-ligatures="normal" font-variant-position="normal" font-variant-caps="normal" font-variant-numeric="normal" font-variant-alternates="normal" font-feature-settings="normal" text-indent="0" text-align="start" text-decoration-line="none" text-decoration-style="solid" text-decoration-color="rgb(0,0,0)" text-transform="none" text-orientation="mixed" white-space="normal" shape-padding="0" isolation="auto" mix-blend-mode="normal" solid-color="rgb(0,0,0)" solid-opacity="1" vector-effect="none"/></g></svg>