<svg id="svg31911" fill="#f68214" height="512" viewBox="0 0 16.933333 16.933334" width="512" xmlns="http://www.w3.org/2000/svg" xmlns:svg="http://www.w3.org/2000/svg"><g id="layer1" transform="translate(0 -280.067)"><path id="path12764" d="m7.4083337 280.59582c-1.7799735 0-3.4909572.69-4.7728345 1.92494-.2544577.24495.1129613.62632.367419.38138 1.1833966-1.14008 2.7621892-1.77716 4.4054155-1.77716 3.5101423 0 6.3500003 2.83986 6.3500003 6.35 0 .85339-.172159 1.69815-.505913 2.48357-.138424.32513.349759.5322.48731.20671.361564-.85087.54777-1.76578.54777-2.69028 0-3.79612-3.083042-6.87916-6.8791673-6.87916zm0 1.05833c-3.2116234 0-5.8208332 2.60921-5.8208332 5.82083 0 3.21163 2.6092098 5.82084 5.8208332 5.82084.822384 0 1.635242-.17404 2.385383-.51108.3354833-.13902.110384-.6408-.216522-.48266-.681961.30641-1.42123.46457-2.168861.46457-2.9256405 0-5.2916665-2.36603-5.2916665-5.29167s2.366026-5.29166 5.2916665-5.29166c2.9256413 0 5.2916673 2.36602 5.2916673 5.29166 0 .74769-.158639 1.48686-.465088 2.16886-.147148.3227.3389.54127.482659.21704.337089-.75018.511595-1.56345.511595-2.3859 0-3.21162-2.609209-5.82083-5.8208333-5.82083zm-5.2777151 1.57975c-.087275-.003-.1702249.038-.2216917.10852-.895518 1.19166-1.37975968 2.64192-1.37975968 4.13256-.0000011 3.79613 3.08304148 6.87917 6.87916648 6.87917.924666 0 1.839802-.1866 2.6907913-.54829.341977-.13056.124733-.64217-.2067053-.48679-.785537.33387-1.63054.50591-2.484086.50591-3.5101422 0-6.3499999-2.83986-6.3499999-6.35.0000011-1.37605.4471461-2.71469 1.2738233-3.81475.1322493-.17108.014605-.41995-.2015385-.42633zm5.2740981.2682c-.146949.002-.264742.12282-.262001.26975v.817c-.747903.12756-1.3223977.78082-1.3223977 1.56373 0 .87362.7143987 1.58802 1.5880157 1.58802.587635 0 1.05885.46863 1.05885 1.05627 0 .58763-.471215 1.05885-1.05885 1.05885-.587634 0-1.058333-.47122-1.058333-1.05885 0-.35313-.5296827-.35313-.5296827 0 0 .78292.5744817 1.4367 1.3223977 1.56424v.81907c0 .35287.529167.35287.529167 0v-.81907c.749062-.12657 1.324467-.7805 1.324467-1.56424 0-.87362-.714399-1.58544-1.588016-1.58544-.587634 0-1.058333-.47121-1.058333-1.05885 0-.58763.470699-1.05833 1.058333-1.05833.587635 0 1.05885.4707 1.05885 1.05833-.008.3607.537173.3607.529166 0 0-.78376-.575381-1.43769-1.324467-1.56424v-.81649c.0028-.14923-.117919-.27145-.267166-.26975zm2.396236 6.6952 1.8515673 6.08593c.06946.22934.383805.25595.490408.0413l.89452-1.78697 1.85725 1.85519c.103204.10256.269902.10256.373105 0l1.058849-1.05834c.102561-.1032.102561-.2699 0-.3731l-1.857766-1.85777 1.789038-.89452c.214609-.1066.188516-.42044-.04083-.48989l-6.085933-1.85157c-.2298563-.0639-.3858413.15361-.3302133.3297zm.6506053.32039 4.976442 1.51567-1.523423.76171c-.161446.0809-.196027.29616-.06821.42375l1.929598 1.93011-.683678.68317-1.929598-1.9296c-.127588-.12782-.342816-.0932-.423746.0682l-.763778 1.52549z" font-variant-ligatures="normal" font-variant-position="normal" font-variant-caps="normal" font-variant-numeric="normal" font-variant-alternates="normal" font-feature-settings="normal" text-indent="0" text-align="start" text-decoration-line="none" text-decoration-style="solid" text-decoration-color="rgb(0,0,0)" text-transform="none" text-orientation="mixed" white-space="normal" shape-padding="0" isolation="auto" mix-blend-mode="normal" solid-color="rgb(0,0,0)" solid-opacity="1" vector-effect="none"/></g></svg>