<svg id="svg31911" fill="#f68214" viewBox="0 0 16.933333 16.933334" xmlns="http://www.w3.org/2000/svg" xmlns:svg="http://www.w3.org/2000/svg"><g id="layer1" transform="translate(0 -280.067)"><path id="path13309" d="m12.700515 281.12549c-.435168 0-.794782.35755-.794782.79272v8.06824l-4.4984352-1.89343v-3.61683l3.8090712-1.603c.276476-.11135.186105-.52358-.111622-.50953-.03296.001-.06532.008-.0956.0212l-3.9181082 1.65055h-2.5936394c-.4349618 0-.7932341.35756-.7932341.79272h-.2656178c-.4349486 0-.7927155.36013-.7927155.7953v1.32188c0 .43516.3577669.7953.7927155.7953h.2656178c0 .43516.3582723.79272.7932341.79272h.2656152v1.3224h-.9255231c-.4365704 0-.8493548.2425-1.1684053.58032-.014526.0154-.027186.0327-.041341.0486-.077121-.35696-.3963247-.6289-.7746286-.6289h-1.05885202c-.146939-.00056-.2661867.11868-.2656152.26561v5.55677c.0005292.14617.1194462.26411.2656152.26355h1.05885192c.2807653 0 .5276533-.15001.6686921-.37259.2381011.23004.5613479.37259.9172575.37259h1.8531152c.3528615 0 .3528615-.52917 0-.52917h-1.8531152c-.4443095 0-.7932341-.34892-.7932341-.79323v-2.9099c0-.30868.1650629-.65253.4082441-.91002.2431892-.25749.5579984-.41445.7828968-.41445h2.9104169c.224451 0 .396359.17191.396359.39636s-.171908.39894-.396359.39894h-1.853634c-.1454097.00053-.2630382.11815-.2635488.26355 0 .47405-.1413801.79354-.3513984 1.00356-.2100104.21002-.5021792.31833-.8402611.31833-.3528589 0-.3528589.52968 0 .52968.4556707 0 .8942149-.15576 1.2133633-.47491.2576115-.2576.4493339-.62241.4945433-1.11104h.7239873c-.029721.0829-.048575.17089-.048575.26355 0 .20343.080005.3882.2077376.52917-.1276164.14139-.2077376.32636-.2077376.52968s.080121.38771.2077376.52865c-.068913.0764-.1225708.16627-.1586468.26407h-.578776v-.26355c.00299-.15001-.1192239-.27257-.2692321-.26975-.1461823.003-.262673.12357-.2599346.26975v.52916c.0005292.14541.1181418.26304.2635515.26355h.8438753c.036044.0985.089718.18898.1591627.26562-.1276164.1414-.2077376.32636-.2077376.52968 0 .43517.3575553.79272.7927154.79272h1.058334c.43516 0 .793234-.35755.793234-.79272 0-.20329-.08016-.38829-.207741-.52968.127701-.14096.207741-.32577.207741-.52917 0-.20329-.08016-.38829-.207741-.52968.127582-.14093.207741-.32536.207741-.52865s-.08016-.38829-.207741-.52968c.127701-.14096.207741-.32577.207741-.52917 0-.43516-.358074-.79272-.793234-.79272h-.09405c.0587-.12149.09405-.25602.09405-.39894 0-.25067-.101833-.47815-.265618-.64544v-.54363c.003-.14923-.117917-.27146-.267166-.26975-.14695.002-.264739.12281-.262001.26975v.27698c-.04315-.006-.08595-.0134-.130741-.0134h-1.4552085v-1.3224h1.7988575l4.8394992 2.03812c.08543.34641.399227.60874.769977.60874.43516 0 .793234-.36013.793234-.7953v-2.93625c.602626-.12285 1.058333-.65804 1.058333-1.29605 0-.638-.455707-1.17438-1.058333-1.29759v-2.93677c0-.43517-.358084-.79272-.793234-.79272zm0 .52917c.15114 0 .263551.11239.263551.26355v8.46666c0 .15116-.112411.26562-.263551.26562-.15117 0-.265615-.11446-.265615-.26562v-8.46666c0-.15116.114445-.26355.265615-.26355zm3.433384 2.64221a.26460982.26460982 0 0 0 -.14056.047l-.794784.52917a.26565199.26565199 0 1 0 .295071.44183l.792718-.52969a.26460982.26460982 0 0 0 -.152445-.48834zm-11.6364996.26769h2.3807314v3.43958h-2.3807314c-.1505797 0-.2635515-.11239-.2635515-.26355v-2.91248c0-.15116.1129718-.26355.2635515-.26355zm-1.0588519.79323h.2656178v1.85363h-.2656178c-.1505479 0-.2635488-.11498-.2635488-.26613v-1.32188c0-.15116.1130009-.26562.2635488-.26562zm10.0552015.047c.310242.10749.529167.39689.529167.74775s-.218925.63923-.529167.74621zm1.851049.48214a.26464845.26464845 0 0 0 0 .52916h.7953a.26464845.26464845 0 0 0 0-.52916zm-.0016 1.05678a.26460982.26460982 0 0 0 -.144692.48627l.794784.52917a.26460982.26460982 0 1 0 .293005-.43925l-.792718-.52968a.26460982.26460982 0 0 0 -.150379-.0465zm-14.285431 3.44113h.7953005c.1511591 0 .2635488.11447.2635488.26562v4.49843c.000037.15116-.1123527.26355-.2635118.26355h-.7952884zm5.5568028 1.32447h.132808.925526c.151151 0 .264067.11239.264067.26355 0 .15115-.112916.26355-.264067.26355h-1.058322c-.151159 0-.2635486-.1124-.2635486-.26355 0-.15116.1123896-.26355.2635486-.26355zm0 1.05627h1.058334c.151151 0 .264067.11498.264067.26613s-.112916.26355-.264067.26355h-1.058322c-.151159 0-.2635486-.1124-.2635486-.26355s.1123896-.26613.2635486-.26613zm0 1.05885h1.058334c.151151 0 .264067.11446.264067.26561 0 .15116-.112916.26355-.264067.26355h-1.058322c-.151159 0-.2635486-.11239-.2635486-.26355 0-.15115.1123896-.26561.2635486-.26561zm0 1.05833h1.058334c.151151 0 .264067.11498.264067.26613 0 .15116-.112916.26355-.264067.26355h-1.058322c-.151159 0-.2635486-.11239-.2635486-.26355 0-.15115.1123896-.26613.2635486-.26613z" font-variant-ligatures="normal" font-variant-position="normal" font-variant-caps="normal" font-variant-numeric="normal" font-variant-alternates="normal" font-feature-settings="normal" text-indent="0" text-align="start" text-decoration-line="none" text-decoration-style="solid" text-decoration-color="rgb(0,0,0)" text-transform="none" text-orientation="mixed" white-space="normal" shape-padding="0" isolation="auto" mix-blend-mode="normal" solid-color="rgb(0,0,0)" solid-opacity="1" vector-effect="none"/></g></svg>