<svg id="svg31911" fill="#f68214" viewBox="0 0 16.933333 16.933334" xmlns="http://www.w3.org/2000/svg" xmlns:svg="http://www.w3.org/2000/svg"><g id="layer1" transform="translate(0 -280.067)"><path id="path13029-9" d="m8.465631 280.59582v.00053c-.0613.00011-.120668.0214-.167947.0605 0 0-1.683102 1.39371-1.683102 3.64267 0 .13225.0045.25973.01188.38447-.124634.0913-.313983.25368-.496609.52762-.294675.44202-.573604 1.16098-.573604 2.26341.000051.27917.376362.36801.501261.11834 0 0 .306443-.61825 1.069703-.83664.177922.39163.334864.61288.334862.61288.04991.0663.127881.10528.210841.10542.52937.00004 1.057095-.00053 1.586465-.00053.08296-.00014.160941-.0391.210842-.10542 0 0 .15694-.22125.334862-.61288.764079.2181 1.070737.83716 1.070737.83716.124899.24967.501211.16083.501261-.11834 0-1.10243-.278929-1.82139-.573609-2.26343-.183205-.27481-.373084-.43754-.497644-.52865.0074-.12457.01188-.25189.01188-.38395 0-2.24896-1.6831-3.64268-1.6831-3.64268-.04728-.039-.106643-.0603-.167944-.0604-.000265-.00001-.000794 0-.0011 0zm.001.632c.103886.096.328607.33757.56379.6904h-1.128096c.234905-.35216.459372-.59334.563272-.68937.000264.00027.000793.00035.0011.00053zm-5.0027918 9.42268h-2.4055068v-7.67395c0-.15116.1144667-.26355.2656179-.26355h4.7604307c.360691.008.360781-.52917 0-.52917h-4.7604307c-.4351602 0-.7947845.35756-.7947845.79272v9.52552c0 .43516.3596243.79323.7947845.79323h14.2869817c.43516 0 .793234-.35807.793234-.79323v-9.52552c0-.43516-.358074-.79272-.793234-.79272h-4.7625c-.360698-.008-.360788.52917 0 .52917h4.7625c.15117 0 .263552.11239.263552.26355v7.67395h-2.405023c-.126868-.74858-.779775-1.32343-1.563471-1.32343-.251007.00053-.458369.0503-.66585.14624-.177149-.39893-.525989-.71858-.953429-.8599-.0309-.0107-.06352-.0157-.09612-.0145-.29675.0111-.352942.42737-.06976.51676.35719.11809.634968.42168.707967.80977.03694.19516.267726.28156.423748.15865.186331-.14716.416783-.22746.654222-.22789.495494.00024.904272.33683 1.021128.79426h-8.9224572c.1168558-.45743.5256342-.79402 1.0211272-.79426.23744.00053.467892.0807.654222.22789.156022.12291.386808.0365.423749-.15865.073-.38809.350777-.69168.707967-.80977.283178-.0894.226986-.5057-.06976-.51676-.0326-.001-.06522.004-.09612.0145-.42744.14132-.77628.46097-.953429.8599-.207481-.0959-.414843-.14579-.665853-.14624-.783693 0-1.4366.57485-1.5634677 1.32343zm4.1366968-8.2026h1.731677c.250391.50245.456303 1.1267.456303 1.85105 0 1.64447-.590828 2.51307-.685229 2.64635-.425331-.00004-.849013.00053-1.274341.00053-.0944-.13328-.685229-1.00188-.685229-2.64635 0-.72467.206235-1.34908.456819-1.85157zm.865063 1.05833c-.43525 0-.792715.35799-.792715.79324 0 .43524.357465.79478.792715.79478.435242-.00001.795301-.35955.795301-.79478 0-.43524-.360059-.79323-.795301-.79324zm0 .52969c.149262 0 .265618.11429.265618.26355 0 .14925-.116356.26561-.265618.26561-.149259 0-.263549-.11635-.263549-.26561 0-.14927.11429-.26355.263549-.26355zm1.767335 1.29863c.04169.05.08418.10146.130226.17053.15958.23936.324135.58875.426847 1.18339-.201208-.16443-.469133-.32287-.7922-.42427.09123-.2682.176141-.57372.235127-.92965zm-3.533635.001c.05895.35551.144002.66066.235127.92863-.322646.10141-.59015.26-.791165.42426.102712-.59463.267267-.94402.426847-1.18339.04573-.0686.08775-.11969.129191-.1695zm.974101 2.66806c-.132318 0-.264584.0881-.264584.26458 0 1.2051.910024 1.80868.910024 1.80868.04459.0299.09639.0444.147794.0444.05143 0 .103195-.0145.147793-.0444 0 0 .910024-.60358.910024-1.80868 0-.17643-.132262-.26458-.264583-.26458-.132324 0-.264584.0881-.264584.26458 0 .72333-.41898 1.13042-.52865 1.24075-.10967-.11033-.528651-.51742-.528651-1.24075 0-.17643-.132263-.26458-.264583-.26458zm-6.6150995 3.17652h14.8161835v1.32189c0 .15115-.112382.26355-.263552.26355h-14.2869817c-.1511512 0-.2656179-.1124-.2656179-.26355zm7.9519695.52865-1.086238.00053c-.33726.0403-.314093.51807.01291.5271h1.058857c.36336.0321.393599-.52033.01447-.52762zm-2.027785 2.09497c-.106198-.002-.203462.0592-.247012.15606-.12741.27328-.355664.59239-.749824.92294h-.429432c-.43516 0-.792715.36014-.792715.7953v.5271c-.00053.14612.117438.26503.263548.26562h6.878652c.14692.00053.266176-.11869.265615-.26562v-.5271c0-.43516-.359622-.7953-.794782-.7953h-.428916c-.39411-.33053-.622425-.64968-.749824-.92294-.0448-.0994-.145905-.16112-.254765-.15555-.18901.01-.307073.20886-.224793.37931.10314.22122.260649.45853.47284.69918h-3.448884c.21218-.24065.369699-.47796.472839-.69918.084-.17352-.03982-.37572-.232545-.37982zm-1.426268 1.60868h5.820318c.151148 0 .265615.11446.265615.26562v.26355h-6.34948v-.26355c0-.15116.11239-.26562.263549-.26562z" font-variant-ligatures="normal" font-variant-position="normal" font-variant-caps="normal" font-variant-numeric="normal" font-variant-alternates="normal" font-feature-settings="normal" text-indent="0" text-align="start" text-decoration-line="none" text-decoration-style="solid" text-decoration-color="rgb(0,0,0)" text-transform="none" text-orientation="mixed" white-space="normal" shape-padding="0" isolation="auto" mix-blend-mode="normal" solid-color="rgb(0,0,0)" solid-opacity="1" vector-effect="none"/></g></svg>