<svg id="svg31911" fill="#f68214" viewBox="0 0 16.933333 16.933334" xmlns="http://www.w3.org/2000/svg" xmlns:svg="http://www.w3.org/2000/svg"><g id="layer1" transform="translate(0 -280.067)"><path id="path13167" d="m3.4390636 280.59479c-.4351496 0-.7932341.36013-.7932341.7953v6.34948c0 .35312.5296827.35312.5296827 0v-6.34948c0-.15117.1123897-.26562.2635514-.26562h8.2031154v1.32395c0 .43516.358063.79324.793234.79324h1.321882v4.49791c-.0081.36079.537266.36079.529167 0v-4.76146c.000529-.0701-.02679-.1376-.07597-.18759l-2.117182-2.11718c-.04966-.0499-.117163-.078-.187585-.078zm8.7322824.90486 1.211813 1.21284h-.947746c-.151159 0-.264067-.1129-.264067-.26407zm-2.9119674 1.47846c-.435168-.00001-.794814.35752-.794782.79271v3.84266l-2.117185-.84697v-1.75804l1.422135-.56844c.277842-.10648.195628-.51957-.101801-.51159-.0327.00079-.06488.008-.09509.0202l-1.539957.61597h-1.2722688c-.4351416.00003-.79375.35859-.79375.79375v1.05834c.0000503.43513.3586004.79375.79375.79375h.05271l.4831742 2.17403c.026858.12091.1340009.20701.2578656.20722h1.058333c.169281.00003.295064-.15669.258382-.32195l-.235127-1.05833c-.07648-.34451-.593247-.22979-.516766.11472l.163814.73639h-.5162468l-.411861-1.85208h.6779948l2.457731.98288c.08675.3446.399489.60464.768945.60462.435152-.00001.7927474-.35961.7927184-.79479v-1.32188h.264064c.435153-.00002.794825-.35804.794785-.79323 0-.43517-.359614-.79482-.794785-.79479h-.264064v-1.3224c0-.43517-.3575374-.79275-.7927184-.79271zm0 .52917c.15113-.00003.263551.11237.263551.26354v4.2323c.000011.15114-.112371.26561-.263551.26562-.151159.00001-.265615-.11444-.265615-.26562v-4.2323c-.000011-.15117.114435-.26356.265615-.26354zm3.2907554.57205-.792716.52917c-.294555.19534-.0016.63717.293005.44183l.794785-.52968c.228425-.14494.117858-.49875-.152445-.48808-.05109.001-.100627.0176-.142629.0468zm-7.7897042 1.01441h1.0572989v1.5875h-1.0572989c-.1511405 0-.2645648-.11337-.2645833-.26458v-1.05834c0-.15117.1133925-.26457.2645833-.26458zm5.2916672.52865h.264064c.151141-.00001.265618.11446.265618.26562.000021.15114-.114437.26354-.265618.26355h-.264064zm1.851564 0c-.344945.008-.344945.52142 0 .52917h.795301c.344945-.008.344945-.52142 0-.52917zm3.182237.40514c-.254654-.011-.376119.30902-.178284.46974l.825788.71262-7.2667394 6.26577-7.2672573-6.26577.825791-.71262c.1946937-.16383.068519-.4812-.1855205-.46663-.059309.003-.1157367.0267-.1601946.0661l-1.05885191.91209c-.058661.0505-.092273.12414-.091982.20154v8.46666c0 .43516.3601482.79272.79530041.79272h14.2869813c.43515 0 .792718-.35756.792718-.79272v-8.46666c.000529-.0773-.033-.15095-.09147-.20154l-1.058849-.91209c-.04592-.0421-.105212-.0666-.167431-.0693zm-3.183784.65164c-.263311-.00018-.365274.34248-.144696.48628l.792716.52917c.294486.20533.596506-.24427.295074-.43925l-.794785-.52969c-.04367-.03-.09533-.0462-.148309-.0465zm-10.8437845 1.1095 7.2362511 6.23631c.09931.0857.246404.0857.345715 0l7.2341854-6.23631v7.84035l-4.034896-3.47938c-.04647-.0412-.105902-.0644-.16795-.0661-.252936-.009-.373195.30786-.177766.4687l3.931542 3.38842h-13.9180122l3.7558426-3.23804c.1940692-.16319.069794-.47989-.1834515-.46716-.060008.003-.1173348.0268-.1622637.0667l-3.8591967 3.32744z" font-variant-ligatures="normal" font-variant-position="normal" font-variant-caps="normal" font-variant-numeric="normal" font-variant-alternates="normal" font-feature-settings="normal" text-indent="0" text-align="start" text-decoration-line="none" text-decoration-style="solid" text-decoration-color="rgb(0,0,0)" text-transform="none" text-orientation="mixed" white-space="normal" shape-padding="0" isolation="auto" mix-blend-mode="normal" solid-color="rgb(0,0,0)" solid-opacity="1" vector-effect="none"/></g></svg>