<svg id="svg31911" fill="#f68214" viewBox="0 0 16.933333 16.933334" xmlns="http://www.w3.org/2000/svg" xmlns:svg="http://www.w3.org/2000/svg"><g id="layer1" transform="translate(0 -280.067)"><path id="path12819" d="m1.3229166 280.59582c-.43516017 0-.79323397.35807-.79323397.79323v14.28905c0 .43516.3580712.79272.79323397.79272h8.9958344c.43516 0 .793234-.35756.793234-.79272v-1.05885c0-.35312-.529685-.35312-.529685 0v1.05885c0 .15116-.112395.26355-.263549.26355h-8.9958344c-.1511565 0-.2635488-.11239-.2635488-.26355v-2.3828h3.7026162c.3528642 0 .3528642-.52968 0-.52968h-3.7026162v-9.52294h9.5229322v.52917c0 .35312.529685.35312.529685 0v-2.3828c0-.43516-.358074-.79323-.793234-.79323zm0 .52968h8.9958344c.151154 0 .263549.11239.263549.26355v1.32395h-9.5229322v-1.32395c0-.15116.1123923-.26355.2635488-.26355zm3.96875 1.05833h1.0583333c.3450379-.008.3450379-.52151 0-.52916h-1.0709936c-.3572378.0242-.332658.53793.012674.52916zm3.7052011 2.11512c-2.6271166 0-4.7640504 2.13694-4.7640504 4.76405 0 2.62712 2.1369338 4.76147 4.7640504 4.76147 1.0156143 0 1.9555043-.32139 2.7290323-.86455l.864547.86455-.07803.078c-.103976.10344-.103976.27172 0 .37517l1.843815 1.84381c.46686.46686 1.230193.46686 1.697053 0 .466857-.46686.466855-1.23071 0-1.69757l-1.843815-1.84381c-.133506-.13351-.293881-.0792-.373105 0l-.077.077-.342617-.34262c-.04981-.0512-.118213-.0801-.189651-.0801-.239186-.002-.35787.28942-.185518.45527l.342096.3421-.419095.41858-.822171-.82166c.988501-.87292 1.615921-2.14523 1.615921-3.56567 0-2.62711-2.134351-4.76405-4.7614663-4.76405zm0 .52917c2.3411323 0 4.2322993 1.89375 4.2322993 4.23488s-1.891167 4.2323-4.2322993 4.2323c-2.3411338 0-4.2348837-1.89117-4.2348837-4.2323s1.8937499-4.23488 4.2348837-4.23488zm-.529685 1.05885c-.345038.008-.345038.52151 0 .52916h.851628l.183451.73846c.02082.084.08143.15252.162264.18345.177773.0688.3439293.16376.4924773.28319.06674.054.155557.0724.238228.0491l.730189-.21084.322461.56017-.546737.52762c-.06181.0602-.09035.14684-.07648.23203.038.19398.01757.38472 0 .56482-.01405.0854.0145.17219.07648.23254l.546737.52917-.322461.55862-.728638-.20929c-.08315-.0238-.172678-.005-.239779.0491-.148873.12002-.3162073.2162-.4945443.28525-.08004.0315-.139787.0999-.160197.18345l-.183451.73638h-.646473l-.183451-.73846c-.02082-.084-.08143-.15251-.162264-.18345-.177771-.0688-.343411-.16376-.491958-.28318-.06674-.0541-.155557-.0724-.238228-.0491l-.7307056.20929-.322461-.55862.5472536-.52762c.06162-.0603.08997-.14692.07597-.23202-.03918-.19289-.01717-.37938.0021-.56483.01365-.0856-.01551-.17249-.07803-.23254l-.5472536-.52917.3224609-.56017.7307047.20877c.08234.0238.171125.006.238229-.047.148873-.12003.315693-.21776.494027-.28681.356386-.11459.14914-.64838-.191204-.49247-.180578.0699-.34214.17823-.500229.28939l-.8242882-.23668c-.1168559-.034-.241816.0161-.3028236.12144l-.5291667.91777c-.060222.10553-.040828.23852.047024.32246l.6051312.58394c-.031403.15227-.014288.29652 0 .44339l-.6051312.58549c-.087852.0839-.1072462.21693-.047024.32246l.5291667.91623c.060531.10589.1855999.15668.3028236.12299l.8263072-.23668c.114408.0802.234537.15035.361217.20929l.208772.83406c.03012.11762.136443.19965.257866.19895h1.058852c.120652-.00025.225861-.0821.255796-.19895l.208775-.832c.1274193-.0593.2482993-.1305.3632843-.21135l.824241.23668c.117223.0337.242292-.0171.302823-.12299l.529167-.91623c.06074-.10507.04221-.238-.04496-.32246l-.6072-.58549c.03142-.15162.01423-.29563 0-.44183l.6072-.5855c.08716-.0845.105698-.21738.04496-.32246l-.529167-.91777c-.06101-.1053-.185967-.15541-.302823-.12144l-.825791.23668c-.114464-.0801-.235014-.15044-.3617343-.20929l-.208775-.83406c-.02914-.1177-.134546-.20054-.255796-.20102zm.529685 1.85363c-.727493 0-1.324467.59491-1.324467 1.3224s.596974 1.32188 1.324467 1.32188 1.3218833-.59439 1.3218833-1.32188-.5943903-1.3224-1.3218833-1.3224zm0 .5271c.44151 0 .792716.35379.792716.7953s-.351206.79272-.792716.79272-.7953-.35121-.7953-.79272.35379-.7953.7953-.7953zm5.0270843 4.87309 1.656228 1.65623c.266039.26604.266039.68326 0 .94929-.266036.26604-.683257.26604-.949296 0l-1.656228-1.65623zm-8.2031187.68368c-.4352423 0-.7927155.35954-.7927155.79478s.3574732.79323.7927155.79323c.4352422 0 .7927155-.35799.7927155-.79323s-.3574733-.79478-.7927155-.79478zm0 .52916c.1492594 0 .2635488.11636.2635488.26562s-.1142894.26355-.2635488.26355-.2635488-.11429-.2635488-.26355.1142894-.26562.2635488-.26562z" font-variant-ligatures="normal" font-variant-position="normal" font-variant-caps="normal" font-variant-numeric="normal" font-variant-alternates="normal" font-feature-settings="normal" text-indent="0" text-align="start" text-decoration-line="none" text-decoration-style="solid" text-decoration-color="rgb(0,0,0)" text-transform="none" text-orientation="mixed" white-space="normal" shape-padding="0" isolation="auto" mix-blend-mode="normal" solid-color="rgb(0,0,0)" solid-opacity="1" vector-effect="none"/></g></svg>